<svg width="4" height="9" viewBox="0 0 4 9" fill="none" xmlns="http://www.w3.org/2000/svg">
<path d="M3.37987 7.64225L3.27284 8.07974C2.95178 8.20647 2.69531 8.30292 2.50433 8.36923C2.31315 8.43575 2.091 8.46884 1.8379 8.46884C1.44922 8.46884 1.14689 8.37362 0.931269 8.1845C0.715646 7.99462 0.607801 7.75401 0.607801 7.46212C0.607801 7.34912 0.615626 7.2329 0.631896 7.11449C0.648303 6.99593 0.674389 6.86241 0.710086 6.71317L1.11133 5.29299C1.14703 5.157 1.17737 5.02814 1.20167 4.90629C1.22632 4.7852 1.23819 4.67378 1.23819 4.57349C1.23819 4.39212 1.20064 4.26526 1.12589 4.19394C1.05113 4.12282 0.908478 4.08671 0.696699 4.08671C0.592973 4.08671 0.486363 4.10332 0.377693 4.13545C0.268543 4.16771 0.175251 4.19888 0.0969238 4.22785L0.20422 3.79001C0.467073 3.68299 0.718323 3.59135 0.958659 3.51528C1.199 3.43902 1.42608 3.40085 1.64088 3.40085C2.02689 3.40085 2.32475 3.49414 2.53392 3.68072C2.74309 3.86745 2.84764 4.1095 2.84764 4.40777C2.84764 4.46949 2.84077 4.57823 2.82602 4.73364C2.8116 4.88941 2.78476 5.03212 2.74563 5.16194L2.3461 6.57643C2.31335 6.69004 2.2839 6.81992 2.2583 6.96607C2.23187 7.11126 2.21924 7.22219 2.21924 7.29661C2.21924 7.48443 2.26111 7.61266 2.34507 7.68083C2.42964 7.749 2.57531 7.78291 2.78222 7.78291C2.87935 7.78291 2.98988 7.76568 3.11269 7.73184C3.23516 7.69799 3.32447 7.66827 3.37987 7.64225ZM3.48119 1.70381C3.48119 1.95025 3.38831 2.16073 3.20166 2.33379C3.01548 2.50747 2.79114 2.59437 2.5287 2.59437C2.26544 2.59437 2.04055 2.50747 1.85225 2.33379C1.66429 2.16066 1.5701 1.95025 1.5701 1.70381C1.5701 1.45784 1.66429 1.24702 1.85225 1.07177C2.0402 0.896783 2.26551 0.809326 2.5287 0.809326C2.79107 0.809326 3.01548 0.896989 3.20166 1.07177C3.38845 1.24702 3.48119 1.45791 3.48119 1.70381Z" fill="#F2F6FC"/>
</svg>
